<?xml version="1.0" encoding="UTF-8"?>
<svg version="1.1" xmlns="http://www.w3.org/2000/svg" width="512" height="512">
<path d="M0 0 C0.94076385 0.00087616 1.88152771 0.00175232 2.85079956 0.00265503 C35.07939186 0.10123636 65.56592109 6.35416818 95.125 19.375 C95.83881836 19.67986328 96.55263672 19.98472656 97.28808594 20.29882812 C119.89811232 29.98734475 139.68377077 44.27542328 158.125 60.375 C158.6298291 60.81521484 159.1346582 61.25542969 159.65478516 61.70898438 C164.82355486 66.2424579 169.7986614 70.81756282 174.2109375 76.09765625 C175.67965667 77.84513233 177.19379044 79.55452098 178.7265625 81.24609375 C208.30508548 114.1210935 225.97738072 156.04197569 233.125 199.375 C233.24214355 200.0443457 233.35928711 200.71369141 233.47998047 201.40332031 C243.08383093 258.34145305 227.47555481 321.67992202 194.52246094 368.65966797 C190.87890219 373.69119693 187.05437104 378.56443179 183.125 383.375 C182.61437012 384.00132324 182.10374023 384.62764648 181.57763672 385.27294922 C171.49300274 397.54242515 160.66122893 408.59189317 148.125 418.375 C147.12984375 419.17550781 146.1346875 419.97601563 145.109375 420.80078125 C97.69272563 458.61583631 35.20031295 475.48766526 -24.86889648 469.4296875 C-86.9650296 462.2240328 -144.86025267 431.46427913 -183.875 382.375 C-185.050625 380.94220703 -185.050625 380.94220703 -186.25 379.48046875 C-197.46938342 365.47421926 -206.39669925 349.6602139 -213.875 333.375 C-214.2045166 332.66085937 -214.5340332 331.94671875 -214.87353516 331.2109375 C-223.74419489 311.73027299 -229.56313146 291.50273505 -232.875 270.375 C-232.99214355 269.68325684 -233.10928711 268.99151367 -233.22998047 268.27880859 C-242.75612115 210.71147701 -226.75848771 147.4317667 -193.125 100.10839844 C-187.23797309 91.94474784 -181.03472153 84.23323569 -174.16796875 76.85546875 C-172.21231934 74.73990252 -170.34934119 72.58256709 -168.5 70.375 C-138.4705757 36.10530977 -93.05823568 14.39617768 -49.25 4.625 C-47.92875122 4.32686401 -47.92875122 4.32686401 -46.58081055 4.02270508 C-31.12388766 0.74055335 -15.75424592 -0.03607483 0 0 Z M-118.875 58.375 C-119.52549316 58.8405127 -120.17598633 59.30602539 -120.84619141 59.78564453 C-128.49505364 65.30094294 -135.86587806 70.99181703 -142.7734375 77.42578125 C-144.65427667 79.17027706 -146.58118031 80.80967568 -148.5625 82.4375 C-152.42546881 85.73581212 -155.60387309 89.50213937 -158.875 93.375 C-159.68839844 94.28894531 -160.50179687 95.20289062 -161.33984375 96.14453125 C-189.61335947 128.16513942 -206.59983997 169.17371974 -211.875 211.375 C-211.98714844 212.2515625 -212.09929687 213.128125 -212.21484375 214.03125 C-218.03380044 269.51061794 -200.46499855 324.97706492 -166.02832031 368.38500977 C-160.93757976 374.65131189 -155.45106637 380.54145294 -149.875 386.375 C-149.23949219 387.05175781 -148.60398437 387.72851562 -147.94921875 388.42578125 C-141.05986596 395.57821195 -133.10115981 401.8312836 -124.875 407.375 C-124.545 407.375 -124.215 407.375 -123.875 407.375 C-123.86691315 406.80696152 -123.85882629 406.23892303 -123.85049438 405.65367126 C-123.76349363 399.66596534 -123.66396674 393.67855491 -123.55761719 387.69116211 C-123.51966457 385.46562722 -123.48475737 383.24003799 -123.453125 381.0144043 C-123.04587464 352.70414131 -120.46023449 327.43696647 -100.875 305.375 C-100.00488281 304.36373047 -100.00488281 304.36373047 -99.1171875 303.33203125 C-85.24773527 288.2917811 -64.28846712 278.98282057 -43.95222473 278.08427429 C-38.19125428 277.92640161 -32.43066452 277.93050783 -26.66796875 277.94140625 C-24.53151791 277.93683319 -22.39506852 277.93152432 -20.25862122 277.92552185 C-15.79987581 277.91663419 -11.34130993 277.91896346 -6.88256836 277.92895508 C-1.21437782 277.94042935 4.45318825 277.92023397 10.12129688 277.89103794 C14.52870007 277.8725472 18.9359572 277.87299403 23.34338951 277.87867546 C25.43103599 277.87882716 27.51869336 277.87291075 29.60630226 277.86038399 C56.09384429 277.72381436 78.79425787 283.67347644 98.33984375 302.5703125 C120.93677963 325.32571216 123.31667662 353.82413814 123.75 384.3125 C123.78827014 386.55665428 123.82732677 388.80079529 123.8671875 391.04492188 C123.96218457 396.48816167 124.04750365 401.93148436 124.125 407.375 C125.22658447 406.75858643 126.32816895 406.14217285 127.46313477 405.50708008 C128.08277603 405.16034744 128.7024173 404.81361481 129.34083557 404.45637512 C131.85735503 402.93112246 133.91874363 401.07071105 136.0625 399.0625 C139.0658381 396.28146336 142.07578902 393.53421118 145.1875 390.875 C184.75990497 356.22927998 208.86661557 303.40136415 212.84765625 251.3671875 C216.21942959 197.05255114 200.11993243 140.88528498 164.125 99.375 C161.81843756 96.77232481 159.49493335 94.18782385 157.1484375 91.62109375 C155.55088072 89.84774404 154.04116508 88.05816018 152.5625 86.1875 C149.98839055 83.21737371 147.25312007 80.74502239 144.26171875 78.20703125 C142.88408306 77.02584087 141.52998867 75.81634374 140.20703125 74.57421875 C110.96519298 47.25544141 72.01502224 31.37849977 33.125 24.375 C32.41988281 24.24367676 31.71476563 24.11235352 30.98828125 23.97705078 C-19.25607498 15.03887064 -77.57341953 28.67591072 -118.875 58.375 Z M-66 305.875 C-66.66322266 306.21684326 -67.32644531 306.55868652 -68.00976562 306.91088867 C-82.72983392 314.89606527 -93.7335625 328.47241426 -98.875 344.375 C-101.13908882 352.56125598 -101.32589011 360.66340112 -101.45703125 369.1015625 C-101.46892675 369.8458186 -101.48082226 370.59007469 -101.49307823 371.356884 C-101.55200882 375.28766824 -101.59596479 379.21834209 -101.63012695 383.14941406 C-101.6613943 386.38807474 -101.72428409 389.62378764 -101.81469727 392.86132812 C-101.92440566 396.79488756 -101.97973177 400.72572811 -101.99652672 404.66074753 C-102.01174405 406.15129942 -102.04566496 407.64178897 -102.09916115 409.13145828 C-102.25486212 413.71585522 -102.22217842 417.93959526 -100.875 422.375 C-97.60490929 425.70695126 -94.12612558 427.53192827 -89.875 429.375 C-88.63171088 430.03848402 -87.39041051 430.70572754 -86.15234375 431.37890625 C-59.59285644 443.77333366 -31.52449397 448.82467823 -2.3125 448.6875 C-1.48150787 448.68534485 -0.65051575 448.6831897 0.20565796 448.68096924 C30.38414177 448.55585984 78.03323179 445.05399766 101.125 422.375 C101.72789885 419.37719472 101.72789885 419.37719472 101.62670898 415.89086914 C101.63211197 415.23671021 101.63751495 414.58255127 101.64308167 413.90856934 C101.65560305 411.7419731 101.63904131 409.57669864 101.62109375 407.41015625 C101.62124883 405.89619375 101.62273928 404.38223086 101.62550354 402.86827087 C101.62688961 399.68796319 101.61430861 396.50810525 101.59155273 393.32788086 C101.56338485 389.28321502 101.56584271 385.23930873 101.57864285 381.19458866 C101.58566133 378.06208512 101.57773761 374.92975163 101.56538582 371.79726982 C101.56091538 370.30838108 101.56049529 368.81947377 101.56445122 367.33058357 C101.59135386 348.26897197 96.59190827 332.32329564 83.33398438 318.38647461 C68.28737074 303.32175123 50.10659414 299.0083526 29.48095703 298.9581604 C27.65396895 298.96353138 25.82698303 298.96968465 24 298.9765625 C22.08056529 298.97453556 20.16113133 298.971619 18.24169922 298.96786499 C14.24113551 298.96347079 10.24077432 298.96977821 6.24023438 298.98388672 C1.15025708 299.00097674 -3.93924538 298.99111984 -9.02920532 298.97316933 C-12.98611941 298.96225243 -16.94292365 298.96581381 -20.89984131 298.9735527 C-22.77504535 298.97553294 -24.65025986 298.97317338 -26.52545166 298.96611404 C-40.18877221 298.92594662 -53.60827148 299.3740111 -66 305.875 Z " fill="#000000" transform="translate(255.875,31.625)"/>
<path d="M0 0 C1.42604221 1.1762246 2.84281132 2.36378372 4.25 3.5625 C4.98734375 4.15546875 5.7246875 4.7484375 6.484375 5.359375 C23.70417663 19.72900257 34.23131947 42.43178014 36.25 64.5625 C37.74811561 90.00418267 30.31903035 113.56471212 13.5859375 133.0390625 C-2.56685279 150.48839784 -24.68678046 161.49136302 -48.5546875 162.765625 C-64.74223392 163.07929097 -79.05322279 160.37402003 -93.75 153.5625 C-95.19632813 152.90121094 -95.19632813 152.90121094 -96.671875 152.2265625 C-117.59782627 141.76358686 -131.87240036 122.15204651 -139.75 100.5625 C-147.15169457 76.36242831 -144.5594537 51.18415111 -132.875 28.75 C-129.93433476 23.63189562 -126.5502454 19.0694026 -122.75 14.5625 C-122.10546875 13.76070312 -121.4609375 12.95890625 -120.796875 12.1328125 C-91.56928325 -22.61554658 -35.76877817 -27.16694397 0 0 Z M-100 22.875 C-113.59839522 35.61273729 -120.71295313 52.77218461 -121.74609375 71.21484375 C-121.7684591 90.38194966 -114.31505549 107.27146451 -101.32421875 121.14453125 C-87.07500338 134.52884735 -69.20072938 141.01566912 -49.75 140.5625 C-31.11985624 139.12805813 -15.10731687 130.67885884 -2.375 117.1875 C9.25043436 103.16355497 15.13731485 86.10200992 14.02734375 67.9140625 C12.00466763 48.86555927 3.76026495 31.81452224 -11.1953125 19.55859375 C-39.19473834 -0.76073879 -73.50791538 0.252994 -100 22.875 Z " fill="#000000" transform="translate(309.75,123.4375)"/>
</svg>
